GRF
version=1
nRows=7
nColumns=46
inDegrees=no
endheader
time	plate1_ground_force_vx	plate1_ground_force_vy	plate1_ground_force_vz	plate1_ground_force_px	plate1_ground_force_py	plate1_ground_force_pz	plate1_ground_torque_x	plate1_ground_torque_y	plate1_ground_torque_z	plate2_ground_force_vx	plate2_ground_force_vy	plate2_ground_force_vz	plate2_ground_force_px	plate2_ground_force_py	plate2_ground_force_pz	plate2_ground_torque_x	plate2_ground_torque_y	plate2_ground_torque_z	plate3_ground_force_vx	plate3_ground_force_vy	plate3_ground_force_vz	plate3_ground_force_px	plate3_ground_force_py	plate3_ground_force_pz	plate3_ground_torque_x	plate3_ground_torque_y	plate3_ground_torque_z	plate4_ground_force_vx	plate4_ground_force_vy	plate4_ground_force_vz	plate4_ground_force_px	plate4_ground_force_py	plate4_ground_force_pz	plate4_ground_torque_x	plate4_ground_torque_y	plate4_ground_torque_z	plate5_ground_force_vx	plate5_ground_force_vy	plate5_ground_force_vz	plate5_ground_force_px	plate5_ground_force_py	plate5_ground_force_pz	plate5_ground_torque_x	plate5_ground_torque_y	plate5_ground_torque_z
      0.71000000	    114.29708758	    465.21073692	    -16.75640877	     -0.86847075	      0.00000000	      0.20101997	      0.00000000	     -1.06426829	      0.00000000	    -44.84390091	    212.76137828	      0.41422767	     -0.34314119	      0.00000000	      0.11647164	     -0.00000000	     -0.19027663	      0.00000000	      0.00000000	      0.00000000	      0.00000000	      0.00000000	      0.00000000	      0.00000000	      0.00000000	      0.00000000	      0.00000000	      0.00000000	      0.00000000	      0.00000000	      0.00000000	      0.00000000	      0.00000000	      0.00000000	      0.00000000	      0.00000000	      0.00000000	      0.00000000	      0.00000000	      0.00000000	      0.00000000	      0.00000000	      0.00000000	      0.00000000	      0.00000000
      0.72000000	    109.94191228	    415.74514793	    -14.72038706	     -0.86819420	      0.00000000	      0.20124912	      0.00000000	     -0.81486613	      0.00000000	    -53.13896138	    244.81964976	      2.59158630	     -0.34023108	      0.00000000	      0.11519863	     -0.00000000	     -0.20629952	      0.00000000	      0.00000000	      0.00000000	      0.00000000	      0.00000000	      0.00000000	      0.00000000	      0.00000000	      0.00000000	      0.00000000	      0.00000000	      0.00000000	      0.00000000	      0.00000000	      0.00000000	      0.00000000	      0.00000000	      0.00000000	      0.00000000	      0.00000000	      0.00000000	      0.00000000	      0.00000000	      0.00000000	      0.00000000	      0.00000000	      0.00000000	      0.00000000
      0.73000000	    102.21404481	    360.83312028	    -12.44616478	     -0.86792135	      0.00000000	      0.20153923	      0.00000000	     -0.56401188	      0.00000000	    -61.17779639	    276.17691719	      5.51166441	     -0.33645341	      0.00000000	      0.11438095	     -0.00000000	     -0.22249212	      0.00000000	      0.00000000	      0.00000000	      0.00000000	      0.00000000	      0.00000000	      0.00000000	      0.00000000	      0.00000000	      0.00000000	      0.00000000	      0.00000000	      0.00000000	      0.00000000	      0.00000000	      0.00000000	      0.00000000	      0.00000000	      0.00000000	      0.00000000	      0.00000000	      0.00000000	      0.00000000	      0.00000000	      0.00000000	      0.00000000	      0.00000000	      0.00000000
      0.74000000	     91.36420889	    302.66724710	    -10.09249540	     -0.86762204	      0.00000000	      0.20186453	      0.00000000	     -0.32546444	      0.00000000	    -68.73588110	    308.00935844	      8.95171179	     -0.33207452	      0.00000000	      0.11388331	     -0.00000000	     -0.23936945	      0.00000000	      0.00000000	      0.00000000	      0.00000000	      0.00000000	      0.00000000	      0.00000000	      0.00000000	      0.00000000	      0.00000000	      0.00000000	      0.00000000	      0.00000000	      0.00000000	      0.00000000	      0.00000000	      0.00000000	      0.00000000	      0.00000000	      0.00000000	      0.00000000	      0.00000000	      0.00000000	      0.00000000	      0.00000000	      0.00000000	      0.00000000	      0.00000000
      0.75000000	     78.08598389	    244.09724181	     -7.81903187	     -0.86728872	      0.00000000	      0.20218240	      0.00000000	     -0.11575060	      0.00000000	    -75.50969973	    341.10569176	     12.59599056	     -0.32739732	      0.00000000	      0.11362716	     -0.00000000	     -0.25585158	      0.00000000	      0.00000000	      0.00000000	      0.00000000	      0.00000000	      0.00000000	      0.00000000	      0.00000000	      0.00000000	      0.00000000	      0.00000000	      0.00000000	      0.00000000	      0.00000000	      0.00000000	      0.00000000	      0.00000000	      0.00000000	      0.00000000	      0.00000000	      0.00000000	      0.00000000	      0.00000000	      0.00000000	      0.00000000	      0.00000000	      0.00000000	      0.00000000
      0.76000000	     63.46311744	    188.28099240	     -5.76392428	     -0.86693287	      0.00000000	      0.20245471	      0.00000000	      0.04878679	      0.00000000	    -81.10642833	    375.31172488	     16.11528570	     -0.32271718	      0.00000000	      0.11356991	     -0.00000000	     -0.27023139	      0.00000000	      0.00000000	      0.00000000	      0.00000000	      0.00000000	      0.00000000	      0.00000000	      0.00000000	      0.00000000	      0.00000000	      0.00000000	      0.00000000	      0.00000000	      0.00000000	      0.00000000	      0.00000000	      0.00000000	      0.00000000	      0.00000000	      0.00000000	      0.00000000	      0.00000000	      0.00000000	      0.00000000	      0.00000000	      0.00000000	      0.00000000	      0.00000000
      0.77000000	     48.78879179	    138.17083923	     -4.02531787	     -0.86656380	      0.00000000	      0.20268310	      0.00000000	      0.15704218	      0.00000000	    -85.12457833	    409.47813005	     19.23917222	     -0.31827285	      0.00000000	      0.11368093	     -0.00000000	     -0.28174180	      0.00000000	      0.00000000	      0.00000000	      0.00000000	      0.00000000	      0.00000000	      0.00000000	      0.00000000	      0.00000000	      0.00000000	      0.00000000	      0.00000000	      0.00000000	      0.00000000	      0.00000000	      0.00000000	      0.00000000	      0.00000000	      0.00000000	      0.00000000	      0.00000000	      0.00000000	      0.00000000	      0.00000000	      0.00000000	      0.00000000	      0.00000000	      0.00000000
